<mxfile host="Electron" agent="Mozilla/5.0 (Macintosh; Intel Mac OS X 10_15_7) AppleWebKit/537.36 (KHTML, like Gecko) draw.io/28.0.6 Chrome/138.0.7204.100 Electron/37.2.3 Safari/537.36" version="28.0.6">
  <diagram name="Page-1" id="JWwXmjuLE_8Ixx2XRW8Z">
    <mxGraphModel dx="2431" dy="2448" grid="1" gridSize="10" guides="1" tooltips="1" connect="1" arrows="1" fold="1" page="1" pageScale="1" pageWidth="850" pageHeight="1100" math="0" shadow="0">
      <root>
        <mxCell id="0" />
        <mxCell id="1" parent="0" />
        <mxCell id="AAHMA0QK3cR3YuDu5S1E-63" value="&lt;font style=&quot;font-size: 18px;&quot;&gt;Matrix Infer&lt;/font&gt;" style="rounded=1;absoluteArcSize=1;arcSize=20;html=1;verticalAlign=top;align=left;spacingTop=5;spacingLeft=10;whiteSpace=wrap;fontSize=14;" vertex="1" parent="1">
          <mxGeometry x="320" y="-500" width="1450" height="1460" as="geometry" />
        </mxCell>
        <mxCell id="cAFnoU_BjDP-xmlGLev0-7" value="&lt;font style=&quot;font-size: 18px;&quot;&gt;Data Plane&lt;/font&gt;" style="dashed=1;rounded=1;absoluteArcSize=1;arcSize=20;html=1;verticalAlign=top;align=left;spacingTop=5;spacingLeft=10;whiteSpace=wrap;fontSize=14;" parent="1" vertex="1">
          <mxGeometry x="870" y="-340" width="870" height="1270" as="geometry" />
        </mxCell>
        <mxCell id="m-ogJHP6CM_5TZ9rh93G-56" value="&lt;font style=&quot;font-size: 18px;&quot;&gt;Control Plane&lt;/font&gt;" style="dashed=1;rounded=1;absoluteArcSize=1;arcSize=20;html=1;verticalAlign=top;align=left;spacingTop=5;spacingLeft=10;whiteSpace=wrap;fontSize=14;" vertex="1" parent="1">
          <mxGeometry x="360" y="-340" width="480" height="1270" as="geometry" />
        </mxCell>
        <mxCell id="cAFnoU_BjDP-xmlGLev0-2" value="Infer Gateway" style="shape=umlFrame;whiteSpace=wrap;html=1;pointerEvents=0;recursiveResize=0;container=0;collapsible=0;width=160;fillStyle=solid;fillColor=#f5f5f5;fontColor=#333333;strokeColor=#666666;fontSize=14;" parent="1" vertex="1">
          <mxGeometry x="910" y="-290" width="800" height="490" as="geometry" />
        </mxCell>
        <mxCell id="cAFnoU_BjDP-xmlGLev0-8" value="Inference Pods" style="shape=umlFrame;whiteSpace=wrap;html=1;pointerEvents=0;recursiveResize=0;container=1;collapsible=0;width=160;fillColor=#f5f5f5;fontColor=#333333;strokeColor=#666666;fontSize=14;" parent="1" vertex="1">
          <mxGeometry x="1130" y="270" width="580" height="640" as="geometry" />
        </mxCell>
        <mxCell id="cAFnoU_BjDP-xmlGLev0-106" value="Replica" style="verticalAlign=top;align=left;shape=cube;size=10;direction=south;fontStyle=0;html=1;boundedLbl=1;spacingLeft=5;whiteSpace=wrap;fontSize=14;" parent="cAFnoU_BjDP-xmlGLev0-8" vertex="1">
          <mxGeometry x="40" y="50" width="510" height="560" as="geometry" />
        </mxCell>
        <mxCell id="cAFnoU_BjDP-xmlGLev0-11" value="Group 0" style="verticalAlign=top;align=left;shape=cube;size=10;direction=south;fontStyle=0;html=1;boundedLbl=1;spacingLeft=5;whiteSpace=wrap;fontSize=14;" parent="cAFnoU_BjDP-xmlGLev0-8" vertex="1">
          <mxGeometry x="30" y="60" width="510" height="560" as="geometry" />
        </mxCell>
        <mxCell id="AAHMA0QK3cR3YuDu5S1E-18" value="Replica" style="verticalAlign=top;align=center;shape=cube;size=10;direction=south;html=1;boundedLbl=1;spacingLeft=5;whiteSpace=wrap;fontSize=14;" vertex="1" parent="cAFnoU_BjDP-xmlGLev0-8">
          <mxGeometry x="60" y="100" width="445" height="229" as="geometry" />
        </mxCell>
        <mxCell id="AAHMA0QK3cR3YuDu5S1E-19" value="Role A : Prefill" style="verticalAlign=top;align=center;shape=cube;size=10;direction=south;html=1;boundedLbl=1;spacingLeft=5;whiteSpace=wrap;fontSize=14;" vertex="1" parent="cAFnoU_BjDP-xmlGLev0-8">
          <mxGeometry x="50" y="109" width="445" height="230" as="geometry">
            <mxPoint as="offset" />
          </mxGeometry>
        </mxCell>
        <mxCell id="AAHMA0QK3cR3YuDu5S1E-10" value="Init Container" style="dashed=1;rounded=1;absoluteArcSize=1;arcSize=20;html=1;verticalAlign=top;align=left;spacingTop=5;spacingLeft=10;whiteSpace=wrap;fontSize=14;" vertex="1" parent="cAFnoU_BjDP-xmlGLev0-8">
          <mxGeometry x="280" y="149" width="190" height="80" as="geometry" />
        </mxCell>
        <mxCell id="AAHMA0QK3cR3YuDu5S1E-12" value="Sidecar Container" style="dashed=1;rounded=1;absoluteArcSize=1;arcSize=20;html=1;verticalAlign=top;align=left;spacingTop=5;spacingLeft=10;whiteSpace=wrap;fontSize=14;" vertex="1" parent="cAFnoU_BjDP-xmlGLev0-8">
          <mxGeometry x="280" y="239" width="190" height="80" as="geometry" />
        </mxCell>
        <mxCell id="AAHMA0QK3cR3YuDu5S1E-13" value="Downloader" style="html=1;align=center;verticalAlign=middle;dashed=1;whiteSpace=wrap;dashPattern=8 8;fontSize=14;" vertex="1" parent="cAFnoU_BjDP-xmlGLev0-8">
          <mxGeometry x="325" y="189" width="110" height="30" as="geometry" />
        </mxCell>
        <mxCell id="AAHMA0QK3cR3YuDu5S1E-1" value="&lt;font style=&quot;font-size: 13px;&quot;&gt;LLM engines (vLLM, SGLang)&lt;/font&gt;" style="dashed=1;rounded=1;absoluteArcSize=1;arcSize=20;html=1;verticalAlign=top;align=left;spacingTop=5;spacingLeft=10;whiteSpace=wrap;fontSize=14;" vertex="1" parent="cAFnoU_BjDP-xmlGLev0-8">
          <mxGeometry x="70" y="149" width="195" height="170" as="geometry" />
        </mxCell>
        <mxCell id="AAHMA0QK3cR3YuDu5S1E-6" value="Entry Pod" style="html=1;align=center;verticalAlign=middle;dashed=0;whiteSpace=wrap;fillColor=#d5e8d4;strokeColor=#82b366;fontSize=14;" vertex="1" parent="cAFnoU_BjDP-xmlGLev0-8">
          <mxGeometry x="110" y="199.5" width="110" height="30" as="geometry" />
        </mxCell>
        <mxCell id="AAHMA0QK3cR3YuDu5S1E-7" value="Worker Pod" style="html=1;align=center;verticalAlign=middle;dashed=0;whiteSpace=wrap;fillColor=#d5e8d4;strokeColor=#82b366;fontSize=14;" vertex="1" parent="cAFnoU_BjDP-xmlGLev0-8">
          <mxGeometry x="110" y="259" width="110" height="30" as="geometry" />
        </mxCell>
        <mxCell id="AAHMA0QK3cR3YuDu5S1E-14" value="Runtime Agent" style="html=1;align=center;verticalAlign=middle;dashed=0;whiteSpace=wrap;fillColor=#f5f5f5;fontColor=#333333;strokeColor=#666666;fontSize=14;" vertex="1" parent="cAFnoU_BjDP-xmlGLev0-8">
          <mxGeometry x="325" y="279" width="110" height="30" as="geometry" />
        </mxCell>
        <mxCell id="AAHMA0QK3cR3YuDu5S1E-36" value="Replica" style="verticalAlign=top;align=center;shape=cube;size=10;direction=south;html=1;boundedLbl=1;spacingLeft=5;whiteSpace=wrap;fontSize=14;" vertex="1" parent="cAFnoU_BjDP-xmlGLev0-8">
          <mxGeometry x="60" y="360" width="445" height="229" as="geometry" />
        </mxCell>
        <mxCell id="AAHMA0QK3cR3YuDu5S1E-37" value="Role B : Decode" style="verticalAlign=top;align=center;shape=cube;size=10;direction=south;html=1;boundedLbl=1;spacingLeft=5;whiteSpace=wrap;fontSize=14;" vertex="1" parent="cAFnoU_BjDP-xmlGLev0-8">
          <mxGeometry x="50" y="369" width="445" height="230" as="geometry">
            <mxPoint as="offset" />
          </mxGeometry>
        </mxCell>
        <mxCell id="AAHMA0QK3cR3YuDu5S1E-39" value="Init Container" style="dashed=1;rounded=1;absoluteArcSize=1;arcSize=20;html=1;verticalAlign=top;align=left;spacingTop=5;spacingLeft=10;whiteSpace=wrap;fontSize=14;" vertex="1" parent="cAFnoU_BjDP-xmlGLev0-8">
          <mxGeometry x="280" y="409" width="190" height="80" as="geometry" />
        </mxCell>
        <mxCell id="AAHMA0QK3cR3YuDu5S1E-40" value="Sidecar Container" style="dashed=1;rounded=1;absoluteArcSize=1;arcSize=20;html=1;verticalAlign=top;align=left;spacingTop=5;spacingLeft=10;whiteSpace=wrap;fontSize=14;" vertex="1" parent="cAFnoU_BjDP-xmlGLev0-8">
          <mxGeometry x="280" y="499" width="190" height="80" as="geometry" />
        </mxCell>
        <mxCell id="AAHMA0QK3cR3YuDu5S1E-41" value="Downloader" style="html=1;align=center;verticalAlign=middle;dashed=1;whiteSpace=wrap;dashPattern=8 8;fontSize=14;" vertex="1" parent="cAFnoU_BjDP-xmlGLev0-8">
          <mxGeometry x="325" y="449" width="110" height="30" as="geometry" />
        </mxCell>
        <mxCell id="AAHMA0QK3cR3YuDu5S1E-42" value="&lt;font style=&quot;font-size: 13px;&quot;&gt;LLM engines (vLLM, SGLang)&lt;/font&gt;" style="dashed=1;rounded=1;absoluteArcSize=1;arcSize=20;html=1;verticalAlign=top;align=left;spacingTop=5;spacingLeft=10;whiteSpace=wrap;fontSize=14;" vertex="1" parent="cAFnoU_BjDP-xmlGLev0-8">
          <mxGeometry x="70" y="409" width="195" height="170" as="geometry" />
        </mxCell>
        <mxCell id="AAHMA0QK3cR3YuDu5S1E-43" value="Entry Pod" style="html=1;align=center;verticalAlign=middle;dashed=0;whiteSpace=wrap;fillColor=#d5e8d4;strokeColor=#82b366;fontSize=14;" vertex="1" parent="cAFnoU_BjDP-xmlGLev0-8">
          <mxGeometry x="110" y="459.5" width="110" height="30" as="geometry" />
        </mxCell>
        <mxCell id="AAHMA0QK3cR3YuDu5S1E-44" value="Worker Pod" style="html=1;align=center;verticalAlign=middle;dashed=0;whiteSpace=wrap;fillColor=#d5e8d4;strokeColor=#82b366;fontSize=14;" vertex="1" parent="cAFnoU_BjDP-xmlGLev0-8">
          <mxGeometry x="110" y="519" width="110" height="30" as="geometry" />
        </mxCell>
        <mxCell id="AAHMA0QK3cR3YuDu5S1E-45" value="Runtime Agent" style="html=1;align=center;verticalAlign=middle;dashed=0;whiteSpace=wrap;fillColor=#f5f5f5;fontColor=#333333;strokeColor=#666666;fontSize=14;" vertex="1" parent="cAFnoU_BjDP-xmlGLev0-8">
          <mxGeometry x="325" y="539" width="110" height="30" as="geometry" />
        </mxCell>
        <mxCell id="m-ogJHP6CM_5TZ9rh93G-15" style="edgeStyle=orthogonalEdgeStyle;rounded=0;orthogonalLoop=1;jettySize=auto;html=1;exitX=0.5;exitY=1;exitDx=0;exitDy=0;exitPerimeter=0;entryX=0.5;entryY=0;entryDx=0;entryDy=0;fillColor=#d5e8d4;strokeColor=#82b366;strokeWidth=3;fontSize=14;" edge="1" parent="1" source="cAFnoU_BjDP-xmlGLev0-10" target="cAFnoU_BjDP-xmlGLev0-71">
          <mxGeometry relative="1" as="geometry" />
        </mxCell>
        <mxCell id="cAFnoU_BjDP-xmlGLev0-10" value="User" style="aspect=fixed;sketch=0;html=1;dashed=0;whitespace=wrap;verticalLabelPosition=bottom;verticalAlign=top;fillColor=#2875E2;strokeColor=#ffffff;points=[[0.005,0.63,0],[0.1,0.2,0],[0.9,0.2,0],[0.5,0,0],[0.995,0.63,0],[0.72,0.99,0],[0.5,1,0],[0.28,0.99,0]];shape=mxgraph.kubernetes.icon2;prIcon=user;fontSize=14;" parent="1" vertex="1">
          <mxGeometry x="1085" y="-460" width="50" height="48" as="geometry" />
        </mxCell>
        <mxCell id="m-ogJHP6CM_5TZ9rh93G-1" style="edgeStyle=orthogonalEdgeStyle;rounded=0;orthogonalLoop=1;jettySize=auto;html=1;exitX=1;exitY=0.5;exitDx=0;exitDy=0;entryX=0;entryY=0.5;entryDx=0;entryDy=0;fontSize=14;" edge="1" parent="1" source="cAFnoU_BjDP-xmlGLev0-21" target="cAFnoU_BjDP-xmlGLev0-72">
          <mxGeometry relative="1" as="geometry" />
        </mxCell>
        <mxCell id="m-ogJHP6CM_5TZ9rh93G-10" value="modify" style="edgeLabel;html=1;align=center;verticalAlign=middle;resizable=0;points=[];fontSize=14;" vertex="1" connectable="0" parent="m-ogJHP6CM_5TZ9rh93G-1">
          <mxGeometry x="-0.7667" relative="1" as="geometry">
            <mxPoint x="140" y="-13" as="offset" />
          </mxGeometry>
        </mxCell>
        <mxCell id="cAFnoU_BjDP-xmlGLev0-21" value="Model Route&lt;div&gt;Controller&lt;/div&gt;" style="fontStyle=0;html=1;whiteSpace=wrap;fillColor=#f5f5f5;fontColor=#333333;strokeColor=#666666;fontSize=14;" parent="1" vertex="1">
          <mxGeometry x="670" y="-170" width="120" height="40" as="geometry" />
        </mxCell>
        <mxCell id="m-ogJHP6CM_5TZ9rh93G-61" style="edgeStyle=orthogonalEdgeStyle;rounded=0;orthogonalLoop=1;jettySize=auto;html=1;exitX=0;exitY=0;exitDx=160;exitDy=33;exitPerimeter=0;entryX=0;entryY=0.5;entryDx=0;entryDy=0;fontSize=14;" edge="1" parent="1" source="cAFnoU_BjDP-xmlGLev0-32" target="cAFnoU_BjDP-xmlGLev0-19">
          <mxGeometry relative="1" as="geometry">
            <Array as="points">
              <mxPoint x="620" y="310" />
              <mxPoint x="650" y="310" />
              <mxPoint x="650" y="380" />
            </Array>
          </mxGeometry>
        </mxCell>
        <mxCell id="m-ogJHP6CM_5TZ9rh93G-64" value="inform" style="edgeLabel;html=1;align=center;verticalAlign=middle;resizable=0;points=[];fontSize=14;" vertex="1" connectable="0" parent="m-ogJHP6CM_5TZ9rh93G-61">
          <mxGeometry x="-0.1215" y="-1" relative="1" as="geometry">
            <mxPoint as="offset" />
          </mxGeometry>
        </mxCell>
        <mxCell id="cAFnoU_BjDP-xmlGLev0-32" value="Autoscaling Policy Binding" style="shape=note2;boundedLbl=1;whiteSpace=wrap;html=1;size=9;verticalAlign=top;align=center;fillColor=#dae8fc;strokeColor=#6c8ebf;fontSize=14;" parent="1" vertex="1">
          <mxGeometry x="460" y="280" width="160" height="60" as="geometry" />
        </mxCell>
        <mxCell id="cAFnoU_BjDP-xmlGLev0-57" style="edgeStyle=orthogonalEdgeStyle;rounded=0;orthogonalLoop=1;jettySize=auto;html=1;exitX=1.007;exitY=0.583;exitDx=0;exitDy=0;exitPerimeter=0;entryX=0;entryY=0.5;entryDx=0;entryDy=0;fontSize=14;" parent="1" source="cAFnoU_BjDP-xmlGLev0-36" target="cAFnoU_BjDP-xmlGLev0-19" edge="1">
          <mxGeometry relative="1" as="geometry">
            <Array as="points">
              <mxPoint x="650" y="429" />
              <mxPoint x="650" y="380" />
            </Array>
          </mxGeometry>
        </mxCell>
        <mxCell id="cAFnoU_BjDP-xmlGLev0-62" value="inform" style="edgeLabel;html=1;align=center;verticalAlign=middle;resizable=0;points=[];fontSize=14;" parent="cAFnoU_BjDP-xmlGLev0-57" vertex="1" connectable="0">
          <mxGeometry x="0.808" y="1" relative="1" as="geometry">
            <mxPoint x="-9" y="31" as="offset" />
          </mxGeometry>
        </mxCell>
        <mxCell id="cAFnoU_BjDP-xmlGLev0-36" value="Autoscaling Policy&amp;nbsp;" style="shape=note2;boundedLbl=1;whiteSpace=wrap;html=1;size=11;verticalAlign=top;align=center;fillColor=#dae8fc;strokeColor=#6c8ebf;fontSize=14;" parent="1" vertex="1">
          <mxGeometry x="460" y="400" width="140" height="50" as="geometry" />
        </mxCell>
        <mxCell id="cAFnoU_BjDP-xmlGLev0-56" style="edgeStyle=orthogonalEdgeStyle;rounded=0;orthogonalLoop=1;jettySize=auto;html=1;fontSize=14;" parent="1" source="cAFnoU_BjDP-xmlGLev0-39" edge="1">
          <mxGeometry relative="1" as="geometry">
            <mxPoint x="670" y="-145" as="targetPoint" />
            <Array as="points">
              <mxPoint x="670" y="-145" />
            </Array>
          </mxGeometry>
        </mxCell>
        <mxCell id="cAFnoU_BjDP-xmlGLev0-63" value="inform" style="edgeLabel;html=1;align=center;verticalAlign=middle;resizable=0;points=[];fontSize=14;" parent="cAFnoU_BjDP-xmlGLev0-56" vertex="1" connectable="0">
          <mxGeometry x="0.6762" y="1" relative="1" as="geometry">
            <mxPoint x="-49" y="-10" as="offset" />
          </mxGeometry>
        </mxCell>
        <mxCell id="cAFnoU_BjDP-xmlGLev0-39" value="Model Route" style="shape=note2;boundedLbl=1;whiteSpace=wrap;html=1;size=11;verticalAlign=top;align=center;fillColor=#dae8fc;strokeColor=#6c8ebf;fontSize=14;" parent="1" vertex="1">
          <mxGeometry x="460" y="-175" width="90" height="50" as="geometry" />
        </mxCell>
        <mxCell id="cAFnoU_BjDP-xmlGLev0-55" style="edgeStyle=orthogonalEdgeStyle;rounded=0;orthogonalLoop=1;jettySize=auto;html=1;exitX=0;exitY=0;exitDx=90;exitDy=33.5;exitPerimeter=0;entryX=0;entryY=0.5;entryDx=0;entryDy=0;fontSize=14;" parent="1" source="cAFnoU_BjDP-xmlGLev0-43" target="cAFnoU_BjDP-xmlGLev0-20" edge="1">
          <mxGeometry relative="1" as="geometry">
            <Array as="points">
              <mxPoint x="550" />
            </Array>
          </mxGeometry>
        </mxCell>
        <mxCell id="cAFnoU_BjDP-xmlGLev0-64" value="inform" style="edgeLabel;html=1;align=center;verticalAlign=middle;resizable=0;points=[];fontSize=14;" parent="cAFnoU_BjDP-xmlGLev0-55" vertex="1" connectable="0">
          <mxGeometry x="0.0222" y="3" relative="1" as="geometry">
            <mxPoint x="-9" y="-7" as="offset" />
          </mxGeometry>
        </mxCell>
        <mxCell id="cAFnoU_BjDP-xmlGLev0-43" value="Model Server" style="shape=note2;boundedLbl=1;whiteSpace=wrap;html=1;size=11;verticalAlign=top;align=center;fillColor=#dae8fc;strokeColor=#6c8ebf;fontSize=14;" parent="1" vertex="1">
          <mxGeometry x="460" y="-30" width="90" height="50" as="geometry" />
        </mxCell>
        <mxCell id="cAFnoU_BjDP-xmlGLev0-47" style="edgeStyle=orthogonalEdgeStyle;rounded=0;orthogonalLoop=1;jettySize=auto;html=1;exitX=1;exitY=0.5;exitDx=0;exitDy=0;fontSize=14;" parent="1" source="cAFnoU_BjDP-xmlGLev0-22" edge="1">
          <mxGeometry relative="1" as="geometry">
            <mxPoint x="1160" y="540" as="targetPoint" />
            <Array as="points">
              <mxPoint x="1160" y="540" />
            </Array>
          </mxGeometry>
        </mxCell>
        <mxCell id="cAFnoU_BjDP-xmlGLev0-49" style="edgeStyle=orthogonalEdgeStyle;rounded=0;orthogonalLoop=1;jettySize=auto;html=1;exitX=0.5;exitY=1;exitDx=0;exitDy=0;entryX=0;entryY=1;entryDx=0;entryDy=0;fontSize=14;" parent="1" source="cAFnoU_BjDP-xmlGLev0-18" edge="1">
          <mxGeometry relative="1" as="geometry">
            <mxPoint x="460" y="425" as="targetPoint" />
            <Array as="points">
              <mxPoint x="730" y="-190" />
              <mxPoint x="400" y="-190" />
              <mxPoint x="400" y="425" />
            </Array>
          </mxGeometry>
        </mxCell>
        <mxCell id="cAFnoU_BjDP-xmlGLev0-66" value="modify" style="edgeLabel;html=1;align=center;verticalAlign=middle;resizable=0;points=[];fontSize=14;" parent="cAFnoU_BjDP-xmlGLev0-49" vertex="1" connectable="0">
          <mxGeometry x="0.8141" y="-1" relative="1" as="geometry">
            <mxPoint x="31" y="20" as="offset" />
          </mxGeometry>
        </mxCell>
        <mxCell id="cAFnoU_BjDP-xmlGLev0-50" style="edgeStyle=orthogonalEdgeStyle;rounded=0;orthogonalLoop=1;jettySize=auto;html=1;exitX=0.5;exitY=1;exitDx=0;exitDy=0;entryX=0;entryY=0.5;entryDx=0;entryDy=0;entryPerimeter=0;fontSize=14;" parent="1" source="cAFnoU_BjDP-xmlGLev0-18" target="cAFnoU_BjDP-xmlGLev0-32" edge="1">
          <mxGeometry relative="1" as="geometry">
            <Array as="points">
              <mxPoint x="730" y="-190" />
              <mxPoint x="400" y="-190" />
              <mxPoint x="400" y="305" />
              <mxPoint x="460" y="305" />
            </Array>
          </mxGeometry>
        </mxCell>
        <mxCell id="cAFnoU_BjDP-xmlGLev0-67" value="modify" style="edgeLabel;html=1;align=center;verticalAlign=middle;resizable=0;points=[];fontSize=14;" parent="cAFnoU_BjDP-xmlGLev0-50" vertex="1" connectable="0">
          <mxGeometry x="0.6364" y="1" relative="1" as="geometry">
            <mxPoint x="29" y="90" as="offset" />
          </mxGeometry>
        </mxCell>
        <mxCell id="cAFnoU_BjDP-xmlGLev0-51" style="edgeStyle=orthogonalEdgeStyle;rounded=0;orthogonalLoop=1;jettySize=auto;html=1;exitX=0.5;exitY=1;exitDx=0;exitDy=0;entryX=0;entryY=0.5;entryDx=0;entryDy=0;entryPerimeter=0;fontSize=14;" parent="1" source="cAFnoU_BjDP-xmlGLev0-18" target="cAFnoU_BjDP-xmlGLev0-39" edge="1">
          <mxGeometry relative="1" as="geometry">
            <Array as="points">
              <mxPoint x="730" y="-190" />
              <mxPoint x="400" y="-190" />
              <mxPoint x="400" y="-150" />
            </Array>
          </mxGeometry>
        </mxCell>
        <mxCell id="cAFnoU_BjDP-xmlGLev0-68" value="modify" style="edgeLabel;html=1;align=center;verticalAlign=middle;resizable=0;points=[];fontSize=14;" parent="cAFnoU_BjDP-xmlGLev0-51" vertex="1" connectable="0">
          <mxGeometry x="0.6988" y="3" relative="1" as="geometry">
            <mxPoint x="27" y="-5" as="offset" />
          </mxGeometry>
        </mxCell>
        <mxCell id="cAFnoU_BjDP-xmlGLev0-52" style="edgeStyle=orthogonalEdgeStyle;rounded=0;orthogonalLoop=1;jettySize=auto;html=1;exitX=0.5;exitY=1;exitDx=0;exitDy=0;entryX=0;entryY=0.5;entryDx=0;entryDy=0;entryPerimeter=0;fontSize=14;" parent="1" source="cAFnoU_BjDP-xmlGLev0-18" target="cAFnoU_BjDP-xmlGLev0-43" edge="1">
          <mxGeometry relative="1" as="geometry">
            <Array as="points">
              <mxPoint x="730" y="-190" />
              <mxPoint x="400" y="-190" />
              <mxPoint x="400" y="-5" />
            </Array>
          </mxGeometry>
        </mxCell>
        <mxCell id="cAFnoU_BjDP-xmlGLev0-69" value="modify" style="edgeLabel;html=1;align=center;verticalAlign=middle;resizable=0;points=[];fontSize=14;" parent="cAFnoU_BjDP-xmlGLev0-52" vertex="1" connectable="0">
          <mxGeometry x="0.8301" y="1" relative="1" as="geometry">
            <mxPoint x="19" y="-14" as="offset" />
          </mxGeometry>
        </mxCell>
        <mxCell id="m-ogJHP6CM_5TZ9rh93G-2" style="edgeStyle=orthogonalEdgeStyle;rounded=0;orthogonalLoop=1;jettySize=auto;html=1;exitX=0.5;exitY=1;exitDx=0;exitDy=0;entryX=0.5;entryY=0;entryDx=0;entryDy=0;fillColor=#d5e8d4;strokeColor=#82b366;strokeWidth=3;fontSize=14;" edge="1" parent="1" source="cAFnoU_BjDP-xmlGLev0-71" target="cAFnoU_BjDP-xmlGLev0-72">
          <mxGeometry relative="1" as="geometry" />
        </mxCell>
        <mxCell id="cAFnoU_BjDP-xmlGLev0-71" value="Auth" style="fontStyle=0;html=1;whiteSpace=wrap;fillColor=#d5e8d4;strokeColor=#82b366;fontSize=14;" parent="1" vertex="1">
          <mxGeometry x="1050" y="-250" width="120" height="40" as="geometry" />
        </mxCell>
        <mxCell id="cAFnoU_BjDP-xmlGLev0-74" value="Proxy" style="fontStyle=0;html=1;whiteSpace=wrap;fillColor=#d5e8d4;strokeColor=#82b366;fontSize=14;" parent="1" vertex="1">
          <mxGeometry x="1050" y="60" width="120" height="40" as="geometry" />
        </mxCell>
        <mxCell id="m-ogJHP6CM_5TZ9rh93G-16" style="edgeStyle=orthogonalEdgeStyle;rounded=0;orthogonalLoop=1;jettySize=auto;html=1;exitX=0.5;exitY=1;exitDx=0;exitDy=0;exitPerimeter=0;entryX=0;entryY=0.5;entryDx=0;entryDy=0;entryPerimeter=0;fontSize=14;" edge="1" parent="1" source="cAFnoU_BjDP-xmlGLev0-145" target="cAFnoU_BjDP-xmlGLev0-28">
          <mxGeometry relative="1" as="geometry">
            <Array as="points">
              <mxPoint x="595" y="-280" />
              <mxPoint x="400" y="-280" />
              <mxPoint x="400" y="-235" />
            </Array>
          </mxGeometry>
        </mxCell>
        <mxCell id="cAFnoU_BjDP-xmlGLev0-145" value="Operator" style="aspect=fixed;sketch=0;html=1;dashed=0;whitespace=wrap;verticalLabelPosition=bottom;verticalAlign=top;fillColor=#2875E2;strokeColor=#ffffff;points=[[0.005,0.63,0],[0.1,0.2,0],[0.9,0.2,0],[0.5,0,0],[0.995,0.63,0],[0.72,0.99,0],[0.5,1,0],[0.28,0.99,0]];shape=mxgraph.kubernetes.icon2;prIcon=user;fontSize=14;" parent="1" vertex="1">
          <mxGeometry x="570" y="-460" width="50" height="48" as="geometry" />
        </mxCell>
        <mxCell id="m-ogJHP6CM_5TZ9rh93G-5" style="edgeStyle=orthogonalEdgeStyle;rounded=0;orthogonalLoop=1;jettySize=auto;html=1;exitX=0.5;exitY=1;exitDx=0;exitDy=0;entryX=0.5;entryY=0;entryDx=0;entryDy=0;fillColor=#d5e8d4;strokeColor=#82b366;strokeWidth=3;fontSize=14;" edge="1" parent="1" source="cAFnoU_BjDP-xmlGLev0-146" target="cAFnoU_BjDP-xmlGLev0-74">
          <mxGeometry relative="1" as="geometry" />
        </mxCell>
        <mxCell id="m-ogJHP6CM_5TZ9rh93G-8" style="edgeStyle=orthogonalEdgeStyle;rounded=0;orthogonalLoop=1;jettySize=auto;html=1;exitX=0.5;exitY=1;exitDx=0;exitDy=0;entryX=0.229;entryY=0;entryDx=0;entryDy=0;entryPerimeter=0;fillColor=#d5e8d4;strokeColor=#82b366;strokeWidth=3;fontSize=14;" edge="1" parent="1" source="cAFnoU_BjDP-xmlGLev0-74" target="cAFnoU_BjDP-xmlGLev0-8">
          <mxGeometry relative="1" as="geometry">
            <Array as="points">
              <mxPoint x="1110" y="130" />
              <mxPoint x="1263" y="130" />
            </Array>
          </mxGeometry>
        </mxCell>
        <mxCell id="m-ogJHP6CM_5TZ9rh93G-28" value="user request (Aggregated Mode)" style="edgeLabel;html=1;align=center;verticalAlign=middle;resizable=0;points=[];fontSize=14;" vertex="1" connectable="0" parent="m-ogJHP6CM_5TZ9rh93G-8">
          <mxGeometry x="0.3494" y="-3" relative="1" as="geometry">
            <mxPoint x="11" y="-5" as="offset" />
          </mxGeometry>
        </mxCell>
        <mxCell id="m-ogJHP6CM_5TZ9rh93G-14" style="edgeStyle=orthogonalEdgeStyle;rounded=0;orthogonalLoop=1;jettySize=auto;html=1;exitX=1;exitY=0.5;exitDx=0;exitDy=0;entryX=0;entryY=0.5;entryDx=0;entryDy=0;fontSize=14;" edge="1" parent="1" source="cAFnoU_BjDP-xmlGLev0-20" target="cAFnoU_BjDP-xmlGLev0-146">
          <mxGeometry relative="1" as="geometry">
            <Array as="points">
              <mxPoint x="920" />
              <mxPoint x="920" />
            </Array>
          </mxGeometry>
        </mxCell>
        <mxCell id="m-ogJHP6CM_5TZ9rh93G-69" value="modify" style="edgeLabel;html=1;align=center;verticalAlign=middle;resizable=0;points=[];fontSize=14;" vertex="1" connectable="0" parent="m-ogJHP6CM_5TZ9rh93G-14">
          <mxGeometry x="0.2231" relative="1" as="geometry">
            <mxPoint x="11" y="-10" as="offset" />
          </mxGeometry>
        </mxCell>
        <mxCell id="m-ogJHP6CM_5TZ9rh93G-24" style="edgeStyle=orthogonalEdgeStyle;rounded=0;orthogonalLoop=1;jettySize=auto;html=1;exitX=0.565;exitY=1.002;exitDx=0;exitDy=0;exitPerimeter=0;entryX=1.006;entryY=0.483;entryDx=0;entryDy=0;entryPerimeter=0;endArrow=none;endFill=0;startArrow=classic;startFill=1;fillColor=#d5e8d4;strokeColor=#82b366;strokeWidth=3;fontSize=14;" edge="1" parent="1" source="AAHMA0QK3cR3YuDu5S1E-19" target="m-ogJHP6CM_5TZ9rh93G-18">
          <mxGeometry relative="1" as="geometry">
            <mxPoint x="1245" y="488.65999999999985" as="sourcePoint" />
            <Array as="points">
              <mxPoint x="1110" y="509" />
              <mxPoint x="1110" y="712" />
            </Array>
          </mxGeometry>
        </mxCell>
        <mxCell id="AAHMA0QK3cR3YuDu5S1E-61" value="prefill" style="edgeLabel;html=1;align=center;verticalAlign=middle;resizable=0;points=[];fontSize=14;" vertex="1" connectable="0" parent="m-ogJHP6CM_5TZ9rh93G-24">
          <mxGeometry x="0.3433" y="-1" relative="1" as="geometry">
            <mxPoint as="offset" />
          </mxGeometry>
        </mxCell>
        <mxCell id="m-ogJHP6CM_5TZ9rh93G-25" style="edgeStyle=orthogonalEdgeStyle;rounded=0;orthogonalLoop=1;jettySize=auto;html=1;fillColor=#d5e8d4;strokeColor=#82b366;strokeWidth=3;exitX=1;exitY=0.655;exitDx=0;exitDy=0;exitPerimeter=0;fontSize=14;" edge="1" parent="1" source="m-ogJHP6CM_5TZ9rh93G-18">
          <mxGeometry relative="1" as="geometry">
            <mxPoint x="1070" y="762" as="sourcePoint" />
            <mxPoint x="1180" y="759" as="targetPoint" />
            <Array as="points" />
          </mxGeometry>
        </mxCell>
        <mxCell id="AAHMA0QK3cR3YuDu5S1E-62" value="decode" style="edgeLabel;html=1;align=center;verticalAlign=middle;resizable=0;points=[];fontSize=14;" vertex="1" connectable="0" parent="m-ogJHP6CM_5TZ9rh93G-25">
          <mxGeometry x="-0.6643" y="-1" relative="1" as="geometry">
            <mxPoint x="9" y="-16" as="offset" />
          </mxGeometry>
        </mxCell>
        <mxCell id="m-ogJHP6CM_5TZ9rh93G-26" style="edgeStyle=orthogonalEdgeStyle;rounded=0;orthogonalLoop=1;jettySize=auto;html=1;exitX=0.5;exitY=1;exitDx=0;exitDy=0;entryX=0.606;entryY=-0.004;entryDx=0;entryDy=0;entryPerimeter=0;fillColor=#d5e8d4;strokeColor=#82b366;strokeWidth=3;fontSize=14;" edge="1" parent="1" source="cAFnoU_BjDP-xmlGLev0-74" target="m-ogJHP6CM_5TZ9rh93G-18">
          <mxGeometry relative="1" as="geometry">
            <Array as="points">
              <mxPoint x="1110" y="130" />
              <mxPoint x="1007" y="130" />
            </Array>
          </mxGeometry>
        </mxCell>
        <mxCell id="m-ogJHP6CM_5TZ9rh93G-27" value="user request (PD Disaggregation Mode)" style="edgeLabel;html=1;align=center;verticalAlign=middle;resizable=0;points=[];fontSize=14;" vertex="1" connectable="0" parent="m-ogJHP6CM_5TZ9rh93G-26">
          <mxGeometry x="0.2468" relative="1" as="geometry">
            <mxPoint x="13" y="-200" as="offset" />
          </mxGeometry>
        </mxCell>
        <mxCell id="m-ogJHP6CM_5TZ9rh93G-54" style="edgeStyle=orthogonalEdgeStyle;rounded=0;orthogonalLoop=1;jettySize=auto;html=1;exitX=0.506;exitY=0.997;exitDx=0;exitDy=0;exitPerimeter=0;entryX=0.545;entryY=0;entryDx=0;entryDy=0;entryPerimeter=0;fontSize=14;" edge="1" parent="1" source="m-ogJHP6CM_5TZ9rh93G-29" target="cAFnoU_BjDP-xmlGLev0-8">
          <mxGeometry relative="1" as="geometry">
            <mxPoint x="1447" y="270" as="targetPoint" />
            <Array as="points" />
          </mxGeometry>
        </mxCell>
        <mxCell id="m-ogJHP6CM_5TZ9rh93G-60" value="get metrics" style="edgeLabel;html=1;align=center;verticalAlign=middle;resizable=0;points=[];fontSize=14;" vertex="1" connectable="0" parent="m-ogJHP6CM_5TZ9rh93G-54">
          <mxGeometry x="-0.7207" y="-3" relative="1" as="geometry">
            <mxPoint x="2" y="14" as="offset" />
          </mxGeometry>
        </mxCell>
        <mxCell id="cAFnoU_BjDP-xmlGLev0-28" value="Model" style="shape=note2;boundedLbl=1;whiteSpace=wrap;html=1;size=10;verticalAlign=top;align=center;fillColor=#dae8fc;strokeColor=#6c8ebf;fontSize=14;" parent="1" vertex="1">
          <mxGeometry x="460" y="-260" width="80" height="50" as="geometry" />
        </mxCell>
        <mxCell id="cAFnoU_BjDP-xmlGLev0-54" style="edgeStyle=orthogonalEdgeStyle;rounded=0;orthogonalLoop=1;jettySize=auto;html=1;entryX=0;entryY=0.5;entryDx=0;entryDy=0;fontSize=14;" parent="1" source="cAFnoU_BjDP-xmlGLev0-28" target="cAFnoU_BjDP-xmlGLev0-18" edge="1">
          <mxGeometry relative="1" as="geometry">
            <Array as="points">
              <mxPoint x="670" y="-230" />
              <mxPoint x="670" y="-230" />
            </Array>
          </mxGeometry>
        </mxCell>
        <mxCell id="cAFnoU_BjDP-xmlGLev0-61" value="inform" style="edgeLabel;html=1;align=center;verticalAlign=middle;resizable=0;points=[];fontSize=14;" parent="cAFnoU_BjDP-xmlGLev0-54" vertex="1" connectable="0">
          <mxGeometry x="-0.3" y="1" relative="1" as="geometry">
            <mxPoint x="14" y="-9" as="offset" />
          </mxGeometry>
        </mxCell>
        <mxCell id="cAFnoU_BjDP-xmlGLev0-18" value="Model Controller" style="fontStyle=0;html=1;whiteSpace=wrap;fillColor=#f5f5f5;fontColor=#333333;strokeColor=#666666;fontSize=14;" parent="1" vertex="1">
          <mxGeometry x="670" y="-250" width="120" height="40" as="geometry" />
        </mxCell>
        <mxCell id="cAFnoU_BjDP-xmlGLev0-60" style="edgeStyle=orthogonalEdgeStyle;rounded=0;orthogonalLoop=1;jettySize=auto;html=1;exitX=1;exitY=1;exitDx=0;exitDy=0;entryX=0;entryY=0.5;entryDx=0;entryDy=0;fontSize=14;" parent="1" target="cAFnoU_BjDP-xmlGLev0-22" edge="1">
          <mxGeometry relative="1" as="geometry">
            <mxPoint x="550" y="535" as="sourcePoint" />
            <Array as="points">
              <mxPoint x="560" y="540" />
              <mxPoint x="680" y="540" />
            </Array>
          </mxGeometry>
        </mxCell>
        <mxCell id="cAFnoU_BjDP-xmlGLev0-65" value="inform" style="edgeLabel;html=1;align=center;verticalAlign=middle;resizable=0;points=[];fontSize=14;" parent="cAFnoU_BjDP-xmlGLev0-60" vertex="1" connectable="0">
          <mxGeometry y="-2" relative="1" as="geometry">
            <mxPoint x="-8" y="-12" as="offset" />
          </mxGeometry>
        </mxCell>
        <mxCell id="cAFnoU_BjDP-xmlGLev0-41" value="Model Infer" style="shape=note2;boundedLbl=1;whiteSpace=wrap;html=1;size=11;verticalAlign=top;align=center;fillColor=#dae8fc;strokeColor=#6c8ebf;fontSize=14;" parent="1" vertex="1">
          <mxGeometry x="460" y="510" width="90" height="50" as="geometry" />
        </mxCell>
        <mxCell id="cAFnoU_BjDP-xmlGLev0-22" value="Model Infer Controller" style="fontStyle=0;html=1;whiteSpace=wrap;fillColor=#f5f5f5;fontColor=#333333;strokeColor=#666666;fontSize=14;" parent="1" vertex="1">
          <mxGeometry x="670" y="520" width="120" height="40" as="geometry" />
        </mxCell>
        <mxCell id="cAFnoU_BjDP-xmlGLev0-20" value="Model Server Controller" style="fontStyle=0;html=1;whiteSpace=wrap;fillColor=#f5f5f5;fontColor=#333333;strokeColor=#666666;fontSize=14;" parent="1" vertex="1">
          <mxGeometry x="670" y="-20" width="120" height="40" as="geometry" />
        </mxCell>
        <mxCell id="cAFnoU_BjDP-xmlGLev0-19" value="Autoscaler Controller" style="fontStyle=0;html=1;whiteSpace=wrap;fillColor=#f5f5f5;fontColor=#333333;strokeColor=#666666;fontSize=14;" parent="1" vertex="1">
          <mxGeometry x="670" y="360" width="120" height="40" as="geometry" />
        </mxCell>
        <mxCell id="cAFnoU_BjDP-xmlGLev0-59" style="edgeStyle=orthogonalEdgeStyle;rounded=0;orthogonalLoop=1;jettySize=auto;html=1;exitX=0.5;exitY=1;exitDx=0;exitDy=0;entryX=0;entryY=0.5;entryDx=0;entryDy=0;entryPerimeter=0;fontSize=14;" parent="1" source="cAFnoU_BjDP-xmlGLev0-19" target="cAFnoU_BjDP-xmlGLev0-41" edge="1">
          <mxGeometry relative="1" as="geometry">
            <Array as="points">
              <mxPoint x="730" y="480" />
              <mxPoint x="400" y="480" />
              <mxPoint x="400" y="535" />
            </Array>
          </mxGeometry>
        </mxCell>
        <mxCell id="cAFnoU_BjDP-xmlGLev0-70" value="modify" style="edgeLabel;html=1;align=center;verticalAlign=middle;resizable=0;points=[];fontSize=14;" parent="cAFnoU_BjDP-xmlGLev0-59" vertex="1" connectable="0">
          <mxGeometry x="0.05" relative="1" as="geometry">
            <mxPoint x="-104" y="40" as="offset" />
          </mxGeometry>
        </mxCell>
        <mxCell id="m-ogJHP6CM_5TZ9rh93G-62" value="" style="group;container=0;fontSize=14;" vertex="1" connectable="0" parent="1">
          <mxGeometry x="910" y="580" width="190" height="273.40999999999997" as="geometry" />
        </mxCell>
        <mxCell id="m-ogJHP6CM_5TZ9rh93G-3" style="edgeStyle=orthogonalEdgeStyle;rounded=0;orthogonalLoop=1;jettySize=auto;html=1;exitX=0.5;exitY=1;exitDx=0;exitDy=0;entryX=0.5;entryY=0;entryDx=0;entryDy=0;fillColor=#d5e8d4;strokeColor=#82b366;strokeWidth=3;fontSize=14;" edge="1" parent="1" source="cAFnoU_BjDP-xmlGLev0-72" target="cAFnoU_BjDP-xmlGLev0-73">
          <mxGeometry relative="1" as="geometry" />
        </mxCell>
        <mxCell id="cAFnoU_BjDP-xmlGLev0-72" value="Rate LImiting" style="fontStyle=0;html=1;whiteSpace=wrap;fillColor=#d5e8d4;strokeColor=#82b366;fontSize=14;" parent="1" vertex="1">
          <mxGeometry x="1050" y="-170" width="120" height="40" as="geometry" />
        </mxCell>
        <mxCell id="cAFnoU_BjDP-xmlGLev0-146" value="Load Balancing" style="fontStyle=0;html=1;whiteSpace=wrap;fillColor=#d5e8d4;strokeColor=#82b366;fontSize=14;" parent="1" vertex="1">
          <mxGeometry x="1050" y="-20" width="120" height="40" as="geometry" />
        </mxCell>
        <mxCell id="m-ogJHP6CM_5TZ9rh93G-4" style="edgeStyle=orthogonalEdgeStyle;rounded=0;orthogonalLoop=1;jettySize=auto;html=1;exitX=0.5;exitY=1;exitDx=0;exitDy=0;entryX=0.5;entryY=0;entryDx=0;entryDy=0;fillColor=#d5e8d4;strokeColor=#82b366;strokeWidth=3;fontSize=14;" edge="1" parent="1" source="cAFnoU_BjDP-xmlGLev0-73" target="cAFnoU_BjDP-xmlGLev0-146">
          <mxGeometry relative="1" as="geometry" />
        </mxCell>
        <mxCell id="m-ogJHP6CM_5TZ9rh93G-29" value="Scheduler" style="shape=umlFrame;whiteSpace=wrap;html=1;pointerEvents=0;recursiveResize=0;container=1;collapsible=0;width=100;height=30;fillColor=#f5f5f5;fontColor=#333333;strokeColor=#666666;fontSize=14;" vertex="1" parent="1">
          <mxGeometry x="1360" y="-220" width="170" height="300" as="geometry" />
        </mxCell>
        <mxCell id="m-ogJHP6CM_5TZ9rh93G-52" value="" style="group;fontSize=14;" vertex="1" connectable="0" parent="m-ogJHP6CM_5TZ9rh93G-29">
          <mxGeometry x="20" y="40" width="130" height="240" as="geometry" />
        </mxCell>
        <mxCell id="m-ogJHP6CM_5TZ9rh93G-32" value="Least Requets" style="fontStyle=0;html=1;whiteSpace=wrap;fontSize=14;" vertex="1" parent="m-ogJHP6CM_5TZ9rh93G-52">
          <mxGeometry width="130" height="34.285714285714285" as="geometry" />
        </mxCell>
        <mxCell id="m-ogJHP6CM_5TZ9rh93G-33" value="Lora Affinity" style="fontStyle=0;html=1;whiteSpace=wrap;fontSize=14;" vertex="1" parent="m-ogJHP6CM_5TZ9rh93G-52">
          <mxGeometry y="34.28571428571426" width="130" height="34.285714285714285" as="geometry" />
        </mxCell>
        <mxCell id="m-ogJHP6CM_5TZ9rh93G-47" value="KV Cache" style="fontStyle=0;html=1;whiteSpace=wrap;fontSize=14;" vertex="1" parent="m-ogJHP6CM_5TZ9rh93G-52">
          <mxGeometry y="68.57142857142857" width="130" height="34.285714285714285" as="geometry" />
        </mxCell>
        <mxCell id="m-ogJHP6CM_5TZ9rh93G-48" value="Least Latency&lt;div&gt;(TTFT &amp;amp; TPOT)&lt;/div&gt;" style="fontStyle=0;html=1;whiteSpace=wrap;fontSize=14;" vertex="1" parent="m-ogJHP6CM_5TZ9rh93G-52">
          <mxGeometry y="102.85714285714286" width="130" height="34.285714285714285" as="geometry" />
        </mxCell>
        <mxCell id="m-ogJHP6CM_5TZ9rh93G-49" value="Prefix Cache" style="fontStyle=0;html=1;whiteSpace=wrap;fontSize=14;" vertex="1" parent="m-ogJHP6CM_5TZ9rh93G-52">
          <mxGeometry y="137.14285714285714" width="130" height="34.285714285714285" as="geometry" />
        </mxCell>
        <mxCell id="m-ogJHP6CM_5TZ9rh93G-50" value="GPU Cache" style="fontStyle=0;html=1;whiteSpace=wrap;fontSize=14;" vertex="1" parent="m-ogJHP6CM_5TZ9rh93G-52">
          <mxGeometry y="171.42857142857142" width="130" height="34.285714285714285" as="geometry" />
        </mxCell>
        <mxCell id="m-ogJHP6CM_5TZ9rh93G-51" value="PD Disaggregation" style="fontStyle=0;html=1;whiteSpace=wrap;fontSize=14;" vertex="1" parent="m-ogJHP6CM_5TZ9rh93G-52">
          <mxGeometry y="205.71428571428572" width="130" height="34.285714285714285" as="geometry" />
        </mxCell>
        <mxCell id="m-ogJHP6CM_5TZ9rh93G-53" style="edgeStyle=orthogonalEdgeStyle;rounded=0;orthogonalLoop=1;jettySize=auto;html=1;exitX=1;exitY=0.5;exitDx=0;exitDy=0;fontSize=14;" edge="1" parent="1" source="cAFnoU_BjDP-xmlGLev0-146">
          <mxGeometry relative="1" as="geometry">
            <mxPoint x="1360" as="targetPoint" />
            <Array as="points">
              <mxPoint x="1260" />
              <mxPoint x="1260" />
            </Array>
          </mxGeometry>
        </mxCell>
        <mxCell id="m-ogJHP6CM_5TZ9rh93G-70" value="schedule" style="edgeLabel;html=1;align=center;verticalAlign=middle;resizable=0;points=[];fontSize=14;" vertex="1" connectable="0" parent="m-ogJHP6CM_5TZ9rh93G-53">
          <mxGeometry x="-0.1053" y="-1" relative="1" as="geometry">
            <mxPoint x="5" y="-11" as="offset" />
          </mxGeometry>
        </mxCell>
        <mxCell id="m-ogJHP6CM_5TZ9rh93G-65" value="" style="group;fontSize=14;" vertex="1" connectable="0" parent="1">
          <mxGeometry x="1050" y="-100" width="250" height="42.5" as="geometry" />
        </mxCell>
        <mxCell id="m-ogJHP6CM_5TZ9rh93G-17" style="edgeStyle=orthogonalEdgeStyle;rounded=0;orthogonalLoop=1;jettySize=auto;html=1;exitX=1;exitY=0.51;exitDx=0;exitDy=0;exitPerimeter=0;entryX=1;entryY=0.75;entryDx=0;entryDy=0;fontSize=14;" edge="1" parent="m-ogJHP6CM_5TZ9rh93G-65" source="cAFnoU_BjDP-xmlGLev0-75" target="cAFnoU_BjDP-xmlGLev0-73">
          <mxGeometry relative="1" as="geometry">
            <Array as="points">
              <mxPoint x="250" y="13" />
              <mxPoint x="250" y="33" />
              <mxPoint x="155" y="33" />
            </Array>
          </mxGeometry>
        </mxCell>
        <mxCell id="cAFnoU_BjDP-xmlGLev0-75" value="" style="sketch=0;aspect=fixed;pointerEvents=1;shadow=0;dashed=0;html=1;strokeColor=none;labelPosition=center;verticalLabelPosition=bottom;verticalAlign=top;align=center;fillColor=#00188D;shape=mxgraph.azure.queue_generic;fontSize=14;" parent="m-ogJHP6CM_5TZ9rh93G-65" vertex="1">
          <mxGeometry x="150" width="83.34" height="25" as="geometry" />
        </mxCell>
        <mxCell id="cAFnoU_BjDP-xmlGLev0-73" value="Fairness Scheduling" style="fontStyle=0;html=1;whiteSpace=wrap;fillColor=#d5e8d4;strokeColor=#82b366;fontSize=14;" parent="m-ogJHP6CM_5TZ9rh93G-65" vertex="1">
          <mxGeometry y="2.5" width="120" height="40" as="geometry" />
        </mxCell>
        <mxCell id="m-ogJHP6CM_5TZ9rh93G-9" style="edgeStyle=orthogonalEdgeStyle;rounded=0;orthogonalLoop=1;jettySize=auto;html=1;exitX=1;exitY=0.25;exitDx=0;exitDy=0;entryX=0;entryY=0.5;entryDx=0;entryDy=0;entryPerimeter=0;startArrow=none;startFill=0;fontSize=14;" edge="1" parent="m-ogJHP6CM_5TZ9rh93G-65" source="cAFnoU_BjDP-xmlGLev0-73" target="cAFnoU_BjDP-xmlGLev0-75">
          <mxGeometry relative="1" as="geometry" />
        </mxCell>
        <mxCell id="m-ogJHP6CM_5TZ9rh93G-18" value="KV Connector" style="shape=umlFrame;whiteSpace=wrap;html=1;pointerEvents=0;recursiveResize=0;container=0;collapsible=0;width=110;height=33;fillColor=#f5f5f5;fontColor=#333333;strokeColor=#666666;fontSize=14;" vertex="1" parent="1">
          <mxGeometry x="910" y="580" width="160" height="273.41" as="geometry" />
        </mxCell>
        <mxCell id="m-ogJHP6CM_5TZ9rh93G-19" value="HTTP" style="fontStyle=0;html=1;whiteSpace=wrap;fillColor=#d5e8d4;strokeColor=#82b366;fontSize=14;" vertex="1" parent="1">
          <mxGeometry x="930" y="788.6599999999999" width="120" height="40" as="geometry" />
        </mxCell>
        <mxCell id="m-ogJHP6CM_5TZ9rh93G-21" value="MoonCake" style="fontStyle=0;html=1;whiteSpace=wrap;fillColor=#d5e8d4;strokeColor=#82b366;fontSize=14;" vertex="1" parent="1">
          <mxGeometry x="930" y="683.4099999999999" width="120" height="40" as="geometry" />
        </mxCell>
        <mxCell id="m-ogJHP6CM_5TZ9rh93G-20" value="LMCache" style="fontStyle=0;html=1;whiteSpace=wrap;fillColor=#d5e8d4;strokeColor=#82b366;fontSize=14;" vertex="1" parent="1">
          <mxGeometry x="930" y="736.71" width="120" height="40" as="geometry" />
        </mxCell>
        <mxCell id="m-ogJHP6CM_5TZ9rh93G-22" value="Nixl" style="fontStyle=0;html=1;whiteSpace=wrap;fillColor=#d5e8d4;strokeColor=#82b366;fontSize=14;" vertex="1" parent="1">
          <mxGeometry x="930" y="633.4099999999999" width="120" height="40" as="geometry" />
        </mxCell>
        <mxCell id="m-ogJHP6CM_5TZ9rh93G-67" value="modify" style="edgeLabel;html=1;align=center;verticalAlign=middle;resizable=0;points=[];fontSize=14;" vertex="1" connectable="0" parent="1">
          <mxGeometry x="430" y="-250" as="geometry" />
        </mxCell>
        <mxCell id="cAFnoU_BjDP-xmlGLev0-141" value="replicas" style="text;html=1;align=center;verticalAlign=middle;resizable=0;points=[];autosize=1;strokeColor=none;fillColor=none;fontSize=14;" parent="1" vertex="1">
          <mxGeometry x="1615" y="280" width="70" height="30" as="geometry" />
        </mxCell>
        <mxCell id="cAFnoU_BjDP-xmlGLev0-143" style="rounded=0;orthogonalLoop=1;jettySize=auto;html=1;exitX=0;exitY=0;exitDx=0;exitDy=0;exitPerimeter=0;entryX=0.467;entryY=1;entryDx=0;entryDy=0;entryPerimeter=0;startArrow=classic;startFill=1;endArrow=none;endFill=0;dashed=1;fontSize=14;" parent="1" source="cAFnoU_BjDP-xmlGLev0-106" target="cAFnoU_BjDP-xmlGLev0-141" edge="1">
          <mxGeometry relative="1" as="geometry" />
        </mxCell>
        <mxCell id="cAFnoU_BjDP-xmlGLev0-144" style="rounded=0;orthogonalLoop=1;jettySize=auto;html=1;exitX=0;exitY=0;exitDx=0;exitDy=0;exitPerimeter=0;startArrow=classic;startFill=1;endArrow=none;endFill=0;dashed=1;fontSize=14;" parent="1" source="AAHMA0QK3cR3YuDu5S1E-18" target="cAFnoU_BjDP-xmlGLev0-141" edge="1">
          <mxGeometry relative="1" as="geometry">
            <mxPoint x="1250" y="413.65999999999985" as="sourcePoint" />
          </mxGeometry>
        </mxCell>
        <mxCell id="AAHMA0QK3cR3YuDu5S1E-59" style="edgeStyle=orthogonalEdgeStyle;rounded=0;orthogonalLoop=1;jettySize=auto;html=1;exitX=1;exitY=0.5;exitDx=0;exitDy=0;fontSize=14;" edge="1" parent="1" source="cAFnoU_BjDP-xmlGLev0-19">
          <mxGeometry relative="1" as="geometry">
            <mxPoint x="1130" y="380" as="targetPoint" />
          </mxGeometry>
        </mxCell>
        <mxCell id="AAHMA0QK3cR3YuDu5S1E-60" value="get metrics" style="edgeLabel;html=1;align=center;verticalAlign=middle;resizable=0;points=[];fontSize=14;" vertex="1" connectable="0" parent="AAHMA0QK3cR3YuDu5S1E-59">
          <mxGeometry x="-0.3317" y="-2" relative="1" as="geometry">
            <mxPoint x="16" y="-12" as="offset" />
          </mxGeometry>
        </mxCell>
      </root>
    </mxGraphModel>
  </diagram>
</mxfile>
